<?xml version="1.0" encoding="iso-8859-1"?>
<!-- Generator: Adobe Illustrator 19.0.0, SVG Export Plug-In . SVG Version: 6.00 Build 0)  -->
<svg version="1.1" id="Layer_1" xmlns="http://www.w3.org/2000/svg" xmlns:xlink="http://www.w3.org/1999/xlink" x="0px" y="0px"
	 viewBox="0 0 511.992 511.992" style="enable-background:new 0 0 511.992 511.992;" xml:space="preserve">
<polygon style="fill:#ED5564;" points="419.49,127.997 381.99,69.498 328.99,25.999 262.992,13.499 206.493,18.499 166.495,33.999 
	116.495,73.998 89.995,135.497 82.495,183.996 423.988,178.496 "/>
<polygon style="fill:#F5F7FA;" points="92.495,180.996 87.995,188.496 100.495,241.995 139.995,311.994 198.493,402.492 
	242.992,495.991 261.992,500.491 279.492,490.991 298.991,441.491 328.99,385.993 356.49,335.993 386.99,292.994 410.99,246.495 
	426.988,188.496 "/>
<path style="fill:#A0D468;" d="M315.991,180.996c0,33.968-27.53,61.499-61.499,61.499c-33.968,0-61.499-27.531-61.499-61.499
	s27.531-61.499,61.499-61.499C288.461,119.497,315.991,147.028,315.991,180.996z"/>
<g>
	<path style="fill:#080808;" d="M423.051,111.904c-9.155-21.5-22.202-40.921-38.795-57.702
		c-16.703-16.89-36.078-30.187-57.594-39.515C304.195,4.937,280.431,0,255.993,0c-24.429,0-48.202,4.937-70.671,14.687
		c-21.515,9.328-40.89,22.625-57.592,39.515c-16.594,16.781-29.648,36.203-38.805,57.702c-9.461,22.234-14.265,45.593-14.265,69.437
		c0,51.937,25.671,90.311,58.17,138.903c27.617,41.297,61.991,92.687,91.187,168.811c3.133,8.594,13.336,22.937,31.976,22.937
		c18.547,0,28.781-13.468,31.906-21.437l0.047-0.094c29.295-77.03,63.795-128.811,91.514-170.436
		c32.327-48.561,57.873-86.904,57.873-138.684C437.332,157.497,432.52,134.138,423.051,111.904z M142.901,69.202
		c30.523-30.859,70.687-47.858,113.092-47.858s82.561,17,113.092,47.858c14.688,14.859,26.25,32.046,34.343,51.046
		c6.906,16.25,11,33.156,12.188,50.421h-85.719c-5.188-36.14-36.358-63.999-73.904-63.999s-68.71,27.859-73.896,63.999h-53.655
		c5.444-65.608,60.568-117.326,127.552-117.326l0,0c2.727,0,5.461-1.046,7.539-3.125c4.172-4.172,4.172-10.922,0-15.094
		c-2.078-2.078-4.812-3.125-7.547-3.125c-39.882,0-77.381,15.531-105.584,43.75c-25.679,25.671-40.843,59.045-43.358,94.92H96.37
		c1.195-17.265,5.273-34.171,12.188-50.421C116.651,101.248,128.207,84.06,142.901,69.202z M309.335,181.34
		c0,29.406-23.937,53.327-53.343,53.327c-29.405,0-53.335-23.921-53.335-53.327c0-29.406,23.93-53.343,53.335-53.343
		C285.398,127.997,309.335,151.934,309.335,181.34z M361.693,308.197c-28.281,42.483-63.483,95.326-93.615,174.481
		c-0.008,0.016-0.008,0.016-0.008,0.031l-0.016,0.031c-0.016,0.031-0.031,0.094-0.047,0.125l0.055-0.156
		c-0.164,0.375-0.609,1.281-1.406,2.375V383.993c0-5.891-4.773-10.656-10.664-10.656s-10.664,4.766-10.664,10.656v100.186
		c-0.734-1.188-1.156-2.156-1.297-2.516l-0.062-0.156c-30.054-78.39-65.186-130.92-93.412-173.122
		c-29.147-43.593-50.843-76.045-54.116-116.389h85.655c5.186,36.14,36.35,63.999,73.896,63.999s68.717-27.859,73.904-63.999h85.655
		C412.27,232.214,390.693,264.651,361.693,308.197z"/>
	<path style="fill:#080808;" d="M255.992,138.669L255.992,138.669L255.992,138.669L255.992,138.669
		c-23.522,0-42.655,19.141-42.663,42.656c0,0.016,0,0.016,0,0.016c0,0.031,0,0.047,0,0.062l0,0c0.016,2.719,1.055,5.406,3.125,7.468
		c4.164,4.172,10.914,4.172,15.078,0c2.07-2.062,3.109-4.75,3.125-7.468h0.008c0-0.031-0.008-0.047-0.008-0.062
		c0-11.766,9.569-21.344,21.335-21.344c2.727,0,5.461-1.031,7.539-3.125c4.172-4.156,4.172-10.906,0-15.078
		C261.453,139.716,258.719,138.669,255.992,138.669z"/>
</g>
<g>
</g>
<g>
</g>
<g>
</g>
<g>
</g>
<g>
</g>
<g>
</g>
<g>
</g>
<g>
</g>
<g>
</g>
<g>
</g>
<g>
</g>
<g>
</g>
<g>
</g>
<g>
</g>
<g>
</g>
</svg>
